<?xml version="1.0" encoding="UTF-8" standalone="no"?>
<!-- Created with Inkscape (http://www.inkscape.org/) -->

<svg
   width="120"
   height="120"
   viewBox="0 0 120 120"
   version="1.1"
   id="svg1"
   xml:space="preserve"
   inkscape:export-filename="Desktop/mango.grill/1tomislav.github.io/media/VatraPng.png"
   inkscape:export-xdpi="96"
   inkscape:export-ydpi="96"
   sodipodi:docname="drawing-1.svg"
   inkscape:version="1.4.2 (ebf0e940d0, 2025-05-08)"
   xmlns:inkscape="http://www.inkscape.org/namespaces/inkscape"
   xmlns:sodipodi="http://sodipodi.sourceforge.net/DTD/sodipodi-0.dtd"
   xmlns="http://www.w3.org/2000/svg"
   xmlns:svg="http://www.w3.org/2000/svg"><sodipodi:namedview
     id="namedview1"
     pagecolor="#ffffff"
     bordercolor="#000000"
     borderopacity="0.25"
     inkscape:showpageshadow="2"
     inkscape:pageopacity="0.0"
     inkscape:pagecheckerboard="0"
     inkscape:deskcolor="#d1d1d1"
     inkscape:document-units="px"
     inkscape:zoom="2.085965"
     inkscape:cx="17.977291"
     inkscape:cy="86.770391"
     inkscape:window-width="1342"
     inkscape:window-height="744"
     inkscape:window-x="0"
     inkscape:window-y="0"
     inkscape:window-maximized="1"
     inkscape:current-layer="layer1" /><defs
     id="defs1" /><g
     inkscape:label="Layer 1"
     inkscape:groupmode="layer"
     id="layer1"><path
       style="fill:#dcdcdc;stroke-width:0.226287;fill-opacity:1"
       d="M -2.7464359,59.367129 V 4.7186913 H 59.822068 122.39057 V 59.367129 114.01557 H 59.822068 -2.7464359 Z m 124.9107159,0 V 4.9449833 H 59.822068 -2.5201519 V 59.367129 113.78929 H 59.822068 122.16428 Z M 6.9273522,106.17994 c -0.2178012,-0.0647 -0.3960029,-0.21198 -0.3960029,-0.32731 0,-0.11534 -0.1327622,-0.2097 -0.2950344,-0.2097 -0.3661748,0 -1.7415528,-1.3935 -1.7415528,-1.7645 0,-0.14964 -0.08833,-0.27209 -0.196301,-0.27209 -0.225207,0 -0.64457,-1.70468 -0.946374,-3.846885 -0.230974,-1.63951 -0.03948,-6.27797 0.266951,-6.46738 0.108277,-0.0669 0.196864,-0.3803 0.196864,-0.69641 0,-1.15177 1.173849,-2.87296 2.6023094,-3.81571 0.5457223,-0.36016 1.0649525,-0.44802 2.6475611,-0.44802 1.2732434,0 2.0686264,0.0999 2.2515584,0.28286 0.155576,0.15557 0.669814,0.28285 1.142757,0.28285 0.677187,0 0.859891,0.0866 0.859891,0.40732 0,0.22402 0.09209,0.50406 0.204637,0.62229 0.112543,0.11824 0.239832,0.87687 0.282857,1.68585 0.07577,1.42466 0.06044,1.47294 -0.487494,1.53685 -0.311143,0.0363 -0.787968,0.17711 -1.059601,0.31293 -0.677017,0.33851 -1.203278,0.0857 -1.203278,-0.57798 0,-0.53324 -1.1164441,-1.72438 -1.6162458,-1.72438 -0.3376109,0 -1.1672668,0.46716 -1.5677068,0.88275 -0.6545535,0.67932 -0.8163037,1.69673 -0.8669796,5.4533 -0.041435,3.073365 0.014926,3.863495 0.3187696,4.467305 0.487828,0.96946 1.1654643,1.41618 2.1482163,1.41618 1.2633493,0 1.6172003,-0.58926 1.5370143,-2.55958 l -0.06623,-1.626745 H 10.151932 9.3599261 l -0.067862,-1.30116 -0.067861,-1.30115 h 2.6378059 c 2.432852,0 2.623223,0.0307 2.450102,0.396 -0.103244,0.21781 -0.241422,1.97477 -0.307073,3.904365 -0.108937,3.20205 -0.161856,3.55078 -0.606161,3.99427 -0.267743,0.26725 -0.72598,0.5606 -1.018298,0.65189 -0.292318,0.0913 -0.596823,0.2677 -0.676682,0.39202 -0.154671,0.24079 -4.1104907,0.44781 -4.7765611,0.24997 z m 103.1871178,-0.004 c -0.2178,-0.0626 -0.39601,-0.20821 -0.39601,-0.32354 0,-0.11533 -0.14862,-0.20969 -0.33027,-0.20969 -0.40231,0 -1.43203,-1.07467 -1.62617,-1.69716 -0.0777,-0.24892 -0.21268,-0.50349 -0.30012,-0.56572 -0.61445,-0.43729 -1.25833,-9.593705 -0.72149,-10.259965 0.11629,-0.14432 0.28281,-0.69518 0.37005,-1.22413 0.0872,-0.52895 0.2515,-0.96172 0.36502,-0.96172 0.11351,0 0.2064,-0.13788 0.2064,-0.30639 0,-0.46783 0.99645,-1.44082 2.02415,-1.97649 0.7725,-0.40264 1.22021,-0.46675 2.76871,-0.39644 1.20007,0.0545 1.87982,0.18179 1.94034,0.36331 0.0512,0.15368 0.22104,0.27942 0.37735,0.27942 0.39336,0 1.58438,1.34957 2.0143,2.28246 0.96308,2.08976 1.32108,6.94986 0.72311,9.816925 -0.50296,2.41157 -1.46,4.4196 -2.1064,4.4196 -0.13296,0 -0.4198,0.17821 -0.63741,0.39601 -0.30755,0.3078 -0.82773,0.40506 -2.33561,0.43668 -1.06697,0.0223 -2.11815,-0.0105 -2.33595,-0.0732 z m 3.15367,-3.14544 c 0.63253,-0.63252 0.8465,-1.98414 0.82238,-5.194715 -0.0316,-4.21485 -0.30001,-5.84919 -1.0789,-6.57106 -0.33057,-0.30635 -0.73478,-0.557 -0.89828,-0.557 -0.49417,0 -1.48972,0.90939 -1.48972,1.36079 0,0.23254 -0.10184,0.48573 -0.2263,0.56266 -0.1383,0.0855 -0.22628,1.85036 -0.22628,4.5391 0,2.78198 0.0832,4.399255 0.22628,4.399255 0.12446,0 0.2263,0.2211 0.2263,0.49133 0,1.14635 1.80572,1.80844 2.64452,0.96964 z m -9.88573,2.72535 c -0.15493,-0.18668 -0.41349,-0.33943 -0.57456,-0.33943 -0.16108,0 -0.33458,-0.12513 -0.38557,-0.27807 -0.0674,-0.20204 -0.26594,-0.16455 -0.72633,0.13711 -0.48294,0.31644 -1.07086,0.41536 -2.4719,0.41594 -2.103087,8.2e-4 -2.762543,-0.20079 -3.608699,-1.10344 -1.045834,-1.11568 -1.456216,-2.25428 -1.863983,-5.171635 -0.373801,-2.67434 -0.373801,-2.93537 -5.7e-5,-5.21286 0.2164,-1.31865 0.562616,-2.71425 0.769382,-3.10132 0.511661,-0.95786 1.629989,-2.20472 1.977453,-2.20472 0.156318,0 0.32461,-0.12119 0.373989,-0.26932 0.117518,-0.35256 4.412895,-0.33456 4.767435,0.02 0.13714,0.13714 0.47628,0.24935 0.75365,0.24935 0.7254,0 1.21548,0.59419 1.21548,1.47368 0,0.41937 0.10183,0.82542 0.22629,0.90234 0.12446,0.0769 0.22629,0.54116 0.22629,1.03165 0,0.7319 -0.0788,0.89179 -0.43923,0.89179 -0.24156,0 -0.50215,0.10183 -0.57907,0.22629 -0.0769,0.12446 -0.37121,0.22628 -0.65397,0.22628 -0.50329,0 -0.66333,-0.21259 -1.23852,-1.64513 -0.44796,-1.11568 -2.118206,-1.31534 -3.035062,-0.36279 -0.238837,0.24813 -0.504639,1.08413 -0.65537,2.06126 -0.352137,2.28276 -0.493129,5.83014 -0.231724,5.83014 0.117159,0 0.26068,0.496015 0.318933,1.102245 0.13839,1.4402 0.750229,2.11507 1.945969,2.14643 1.396874,0.0366 1.656094,-0.32606 1.578934,-2.20915 -0.0644,-1.571305 -0.0792,-1.606775 -0.69888,-1.677885 -0.619692,-0.0711 -0.631674,-0.0999 -0.565713,-1.35773 l 0.06737,-1.28509 2.432593,-0.0642 c 1.90886,-0.0504 2.43259,6.8e-4 2.43259,0.2376 0,0.16601 -0.12729,0.42937 -0.28286,0.58525 -0.20888,0.2093 -0.26675,1.27158 -0.22128,4.061865 0.0773,4.74348 -0.0814,5.61407 -0.85359,4.68359 z m -87.214238,-0.47977 c 0.08588,-0.35846 0.243894,-0.82325 0.351135,-1.03287 0.310425,-0.60677 0.242205,-12.899935 -0.07822,-14.098035 -0.150274,-0.56185 -0.353932,-1.02154 -0.452576,-1.02154 -0.09864,0 -0.179352,-0.15274 -0.179352,-0.33943 0,-0.28841 0.578291,-0.33943 3.846883,-0.33943 2.115794,0 3.846891,0.0891 3.846891,0.198 0,0.1089 0.291176,0.25624 0.647066,0.32742 0.722847,0.14456 2.294673,1.55155 2.294673,2.05403 0,0.17851 0.12618,0.36663 0.280402,0.41804 0.396386,0.13213 0.396386,4.73469 0,4.86682 -0.154222,0.0514 -0.280402,0.22718 -0.280402,0.3906 0,0.16342 -0.339063,0.59483 -0.753467,0.95868 -1.210169,1.06255 -1.199175,0.91383 -0.233029,3.153285 0.169197,0.39218 0.307636,0.92679 0.307636,1.188 0,0.26123 0.0905,0.47495 0.201097,0.47495 0.110609,0 0.266576,0.34899 0.346599,0.77554 0.08001,0.42655 0.236569,0.80841 0.34788,0.84858 0.111319,0.0402 0.269497,0.34357 0.351501,0.67423 0.148986,0.60069 0.147738,0.60131 -1.532373,0.75874 -2.440444,0.22869 -2.52125,0.19427 -2.667071,-1.136 -0.111979,-1.02157 -0.414273,-2.14629 -0.91166,-3.39195 -0.09939,-0.24892 -0.246724,-0.6875 -0.327416,-0.97462 -0.119802,-0.426305 -0.278036,-0.509315 -0.862795,-0.452585 l -0.716094,0.0695 -0.06558,2.130825 c -0.03605,1.17196 0.02431,2.19025 0.134132,2.26288 0.109835,0.0726 0.264081,0.463 0.342766,0.86749 l 0.143072,0.73543 -1.74807,0.003 c -0.961439,0.002 -1.982453,0.0659 -2.268923,0.1426 -0.477567,0.12791 -0.507869,0.0853 -0.364699,-0.51224 z m 6.617868,-9.222945 c 0.488243,-0.48825 0.587573,-0.79522 0.587573,-1.81594 0,-2.03633 -0.875479,-2.97692 -2.615882,-2.81045 l -0.762267,0.0729 -0.06492,2.36072 c -0.03572,1.29839 -0.0085,2.50793 0.0606,2.68786 0.209236,0.54527 2.08723,0.2126 2.794931,-0.4951 z m 6.506743,8.514625 c 0.08425,-0.46672 0.241602,-1.02008 0.349683,-1.2297 0.439876,-0.85316 0.131799,-12.250805 -0.387015,-14.317915 l -0.144409,-0.57537 h 2.150051 c 2.374745,0 2.631795,0.15446 2.067427,1.24229 -0.256079,0.49358 -0.321527,1.94763 -0.321527,7.14286 0,4.104655 0.0839,6.574965 0.226284,6.662975 0.314618,0.19444 0.283697,1.32294 -0.04527,1.6519 -0.167818,0.16782 -0.992915,0.27154 -2.159986,0.27154 h -1.888442 z m 59.23714,0.56573 c -0.414436,-0.58844 -2.345365,-4.80687 -2.345365,-5.12383 0,-0.137785 -0.09373,-0.250505 -0.208307,-0.250505 -0.114566,0 -0.275402,-0.30549 -0.357407,-0.67887 -0.08201,-0.37337 -0.23475,-0.67886 -0.33943,-0.67886 -0.104688,0 -0.257425,-0.30549 -0.339438,-0.67886 -0.08201,-0.37338 -0.242841,-0.67887 -0.357407,-0.67887 -0.114573,0 -0.208307,-0.15274 -0.208307,-0.33943 0,-0.18668 -0.101833,-0.33943 -0.226292,-0.33943 -0.141979,0 -0.226284,1.43315 -0.226284,3.846895 0,2.41373 0.08431,3.84689 0.226284,3.84689 0.124459,0 0.226292,0.20365 0.226292,0.45257 0,0.41708 -0.150861,0.45258 -1.923449,0.45258 -1.913768,0 -2.180067,-0.1048 -1.640585,-0.64563 0.21754,-0.21807 0.26665,-1.96241 0.212679,-7.553055 -0.03858,-3.99823 -0.162305,-7.44163 -0.274896,-7.65201 -0.112599,-0.21038 -0.140413,-0.44681 -0.06183,-0.5254 0.259065,-0.25907 3.688069,-0.16073 3.688069,0.10576 0,0.24816 0.335588,1.07276 1.152137,2.83101 0.237531,0.51146 0.431875,1.04606 0.431875,1.18801 0,0.14194 0.101825,0.25807 0.226284,0.25807 0.124459,0 0.229742,0.1782 0.233967,0.396 0.0041,0.2178 0.204424,0.80333 0.4449,1.30115 0.240468,0.49784 0.440676,1.03244 0.444893,1.18801 0.0041,0.15558 0.109508,0.28287 0.233967,0.28287 0.124459,0 0.226284,0.15273 0.226284,0.33943 0,0.18668 0.111547,0.33943 0.247874,0.33943 0.17352,0 0.224424,-1.25577 0.169711,-4.18645 l -0.07814,-4.18644 1.877121,1.2e-4 1.877129,1.3e-4 -0.147174,0.84857 c -0.08091,0.46672 -0.233274,1.2559 -0.338517,1.75373 -0.117844,0.55745 -0.09832,1.2749 0.05082,1.86766 0.180706,0.71816 0.173887,1.04479 -0.02684,1.28669 -0.187638,0.22609 -0.200468,0.45234 -0.04241,0.74772 0.230909,0.43148 0.199253,8.131625 -0.03703,8.996335 -0.06802,0.24891 -0.131441,0.68169 -0.14096,0.96171 -0.01574,0.46274 -0.128235,0.50915 -1.23419,0.50915 -0.716388,0 -1.298806,-0.11633 -1.416087,-0.28285 z m -52.807482,-0.36087 c 0,-0.13509 0.149173,-0.68498 0.331493,-1.22199 0.478277,-1.40873 0.471899,-13.380695 -0.0073,-14.065115 -0.665263,-0.9498 -0.465097,-1.06211 1.769154,-0.99266 2.006939,0.0624 2.096276,0.0871 2.168893,0.60031 0.04168,0.29438 -0.03475,0.6457 -0.169719,0.78069 -0.163961,0.16396 -0.245444,2.22125 -0.245444,6.19681 v 5.951365 h 1.46629 c 1.4547,0 3.285745,-0.52555 3.285745,-0.94307 0,-0.1183 0.115552,-0.14366 0.256772,-0.0564 0.255631,0.15798 0.119337,3.41422 -0.15436,3.68792 -0.254864,0.25486 -8.701338,0.31516 -8.701338,0.0622 z m 32.528833,0.0254 c -1.103516,-0.0587 -1.527438,-0.16726 -1.527438,-0.39139 0,-0.17063 0.108399,-0.34637 0.240883,-0.39053 0.132485,-0.0441 0.29864,-0.51088 0.369226,-1.03715 0.07055,-0.52627 0.202703,-0.95686 0.293582,-0.95686 0.09089,0 0.235215,-0.68293 0.320728,-1.51762 0.08552,-0.834695 0.240255,-1.623875 0.343866,-1.753735 0.103612,-0.12986 0.246561,-0.59251 0.317677,-1.02811 0.07112,-0.4356 0.278053,-1.55573 0.459876,-2.48916 0.181815,-0.93344 0.452176,-2.35905 0.600803,-3.16803 0.148618,-0.80897 0.377806,-1.69912 0.509295,-1.97808 0.17087,-0.36252 0.165282,-0.66916 -0.01957,-1.07487 l -0.258632,-0.56765 h 2.804434 2.804433 l 0.104949,1.4143 c 0.09832,1.32491 0.318093,2.50534 1.190203,6.39262 0.195452,0.87121 0.440545,1.99133 0.544646,2.48916 0.1041,0.49784 0.301486,1.260895 0.438628,1.695675 0.137142,0.43477 0.24935,1.12213 0.24935,1.52743 0,0.40531 0.08842,0.73694 0.196497,0.73694 0.108064,0 0.253094,0.42199 0.322268,0.93776 0.06917,0.51577 0.260794,1.02335 0.425799,1.12797 0.173471,0.10998 -0.682669,0.19167 -2.029679,0.19367 l -2.329705,0.003 0.145812,-0.77726 c 0.08018,-0.4275 0.02602,-1.1403 -0.120437,-1.58401 l -0.266251,-0.80676 h -1.792751 c -1.623725,0 -1.792751,0.0414 -1.792751,0.43922 0,0.24157 -0.109532,0.50691 -0.243404,0.58965 -0.133871,0.0827 -0.210248,0.57025 -0.169719,1.08335 0.08341,1.056 0.186024,1.01318 -2.132613,0.88999 z m 5.622309,-6.767755 c -0.08636,-0.84292 -0.251487,-1.6464 -0.366941,-1.78552 -0.115462,-0.13911 -0.280076,-1.00777 -0.365824,-1.93034 -0.08574,-0.92257 -0.292066,-1.81357 -0.458498,-1.98 -0.375489,-0.37549 -0.393702,-0.32437 -0.750685,2.10705 -0.430953,2.93517 -0.606936,4.05907 -0.67324,4.29946 -0.153602,0.55696 0.0792,0.68333 1.382311,0.7504 l 1.389889,0.0715 z m -23.445644,6.661445 c -0.0016,-0.037 -0.02724,-3.70773 -0.05661,-8.157145 l -0.05334,-8.08981 2.432591,4e-5 2.43259,4e-5 v 0.67887 c 0,0.37337 0.0945,0.67886 0.210004,0.67886 0.115503,0 0.279977,0.56006 0.365506,1.24458 0.08552,0.68452 0.245598,1.24458 0.35571,1.24458 0.11012,0 0.200216,0.26464 0.200216,0.58809 0,0.32345 0.143194,0.90897 0.318198,1.30115 0.175013,0.39219 0.380612,0.9931 0.456891,1.33536 0.143284,0.64292 0.532492,0.83671 0.681723,0.33943 0.04665,-0.15557 0.309234,-1.04658 0.583437,-1.98002 0.274203,-0.93344 0.576268,-1.85324 0.67125,-2.04402 0.09498,-0.19077 0.244913,-0.69992 0.333182,-1.13143 0.08827,-0.43152 0.274415,-1.11553 0.413662,-1.52001 l 0.253175,-0.73544 h 2.443708 c 1.957429,0 2.443699,0.0638 2.443699,0.32058 0,0.17631 -0.127289,0.36293 -0.282857,0.4147 -0.214302,0.0713 -0.30032,1.54301 -0.354894,6.07205 -0.06509,5.398745 0.05636,7.447305 0.532117,8.976235 0.15631,0.50235 0.130911,0.50915 -1.904559,0.50915 -1.91212,0 -2.062982,-0.0331 -2.062982,-0.45258 0,-0.24892 0.101833,-0.45258 0.226292,-0.45258 0.251577,0 0.328313,-8.647755 0.07896,-8.897125 -0.21272,-0.21272 -0.74235,0.55767 -0.749495,1.0902 -0.0033,0.24892 -0.158373,0.91081 -0.344511,1.47087 -0.186138,0.56006 -0.644872,1.93091 -1.019415,3.046335 -0.374536,1.11542 -0.680981,2.261 -0.680981,2.54574 0,0.28473 -0.101825,0.51769 -0.226284,0.51769 -0.124459,0 -0.226292,0.25458 -0.226292,0.56572 0,0.42136 -0.119606,0.56573 -0.468734,0.56573 -0.695017,0 -1.030467,-0.456 -1.208416,-1.64265 -0.08762,-0.58424 -0.249358,-1.11792 -0.359437,-1.18596 -0.110071,-0.068 -0.268494,-0.57954 -0.352048,-1.1367 -0.08355,-0.55717 -0.229065,-1.013025 -0.323354,-1.013025 -0.0943,0 -0.238983,-0.50915 -0.321534,-1.13144 -0.08255,-0.62229 -0.235289,-1.13144 -0.33943,-1.13144 -0.104133,0 -0.256324,-0.50496 -0.338198,-1.12214 -0.156278,-1.17809 -0.446679,-1.60991 -0.677743,-1.00778 -0.07528,0.19615 -0.136856,2.11086 -0.136856,4.25491 0,3.077305 0.06998,3.990785 0.332235,4.337535 0.182729,0.24158 0.335474,0.4963 0.33943,0.56603 0.0041,0.0697 -0.807437,0.15093 -1.803101,0.18045 -0.995664,0.0295 -1.811739,0.0234 -1.813493,-0.0136 z m -3.61741,-21.235535 c -3.506531,-0.46831 -5.670693,-0.87334 -5.996616,-1.12229 -0.124459,-0.0951 -0.56409,-0.24511 -0.976969,-0.33344 -0.41287,-0.0883 -1.023844,-0.30312 -1.357719,-0.47731 -0.333876,-0.17419 -0.735719,-0.31734 -0.892983,-0.3181 -0.157256,-6.8e-4 -0.462747,-0.10138 -0.67886,-0.22358 -0.216112,-0.1222 -1.25848,-0.62966 -2.316377,-1.12768 -1.836461,-0.86455 -3.600314,-1.8023 -3.84548,-2.04445 -0.259766,-0.25657 -1.577233,-1.13144 -1.703829,-1.13144 -0.140805,0 -0.95635,-0.71628 -2.216943,-1.94712 -0.876392,-0.855727 -1.774553,-2.009756 -2.070991,-2.661007 -0.121017,-0.265858 -0.278991,-0.534287 -0.351053,-0.596512 -0.432364,-0.373369 -0.921848,-2.414189 -0.926423,-3.862584 -0.0065,-2.12621 0.291674,-2.774557 2.283988,-4.962633 0.623273,-0.684521 1.13407,-1.313675 1.135089,-1.398135 8.16e-4,-0.08445 -0.176333,-0.331632 -0.394135,-0.549287 -0.647196,-0.646756 -1.866876,-2.441652 -1.866876,-2.747322 0,-0.155967 -0.07773,-0.283583 -0.172737,-0.283583 -0.419787,0 -0.834639,-2.514636 -0.839957,-5.091464 -0.0057,-2.605678 0.220957,-4.016896 0.907288,-5.657195 0.621056,-1.484283 0.777153,-1.850498 1.224493,-2.872744 0.255712,-0.584351 0.464924,-1.26569 0.464924,-1.514086 0,-0.248404 0.101833,-0.514573 0.226292,-0.591488 0.129525,-0.0801 0.226284,-1.246931 0.226284,-2.728808 v -2.588949 h 0.556905 c 0.670646,0 1.276547,0.612907 2.201674,2.227138 0.881017,1.537275 1.093231,2.351711 1.315249,5.047714 0.218355,2.651508 0.550355,3.134369 2.155116,3.134369 0.83893,0 1.170546,-0.133056 1.83222,-0.735172 0.444346,-0.404346 1.001691,-1.13628 1.238554,-1.626514 0.449297,-0.929931 0.569286,-2.566805 0.237654,-3.242002 -2.39295,-4.872057 -2.736915,-8.255825 -1.213065,-11.933593 0.451825,-1.090457 2.328172,-4.268953 2.582611,-4.374889 0.09965,-0.04152 0.181171,-0.183748 0.181171,-0.316127 0,-0.49034 2.987929,-3.790538 3.434722,-3.793686 0.08445,-6.77e-4 0.306005,-0.153529 0.492339,-0.339863 0.192548,-0.192557 0.504866,-0.275043 0.723581,-0.191121 0.325254,0.124818 0.363247,0.353956 0.245484,1.480653 -0.07659,0.733141 -0.26006,1.557414 -0.407626,1.831706 -0.157182,0.292188 -0.274578,1.529519 -0.283468,2.98788 -0.01574,2.579325 0.149344,3.133921 1.244973,4.182577 0.949368,0.908676 2.502499,1.193718 3.651569,0.670165 1.273439,-0.580216 2.209887,-3.34598 1.85018,-5.464417 -0.205289,-1.208995 0.144728,-4.418967 0.563316,-5.166088 0.10689,-0.19077 0.270614,-0.694153 0.363842,-1.118621 0.09323,-0.424461 0.309838,-0.912085 0.481352,-1.083599 0.171513,-0.171513 0.311836,-0.457314 0.311836,-0.635108 0,-0.467959 0.449183,-0.398507 0.470447,0.07276 0.01419,0.315434 0.04413,0.326942 0.147068,0.05661 0.07104,-0.186685 0.241227,-0.425407 0.378141,-0.530495 0.151832,-0.11653 0.09447,-0.141375 -0.147077,-0.0637 -1.263725,0.406524 0.449721,-1.785826 4.62459,-5.91714 1.330053,-1.316171 2.583648,-2.4855907 2.785764,-2.5987037 0.739381,-0.413776 1.018861,-0.02683 1.018861,1.4106217 0,1.872773 0.593975,5.674486 1.011748,6.475578 0.188748,0.36195 0.343818,0.785374 0.344585,0.94095 7.66e-4,0.155576 0.103219,0.282857 0.227678,0.282857 0.124459,0 0.226284,0.105952 0.226284,0.235452 0,0.210909 0.827959,1.515465 1.143124,1.801136 0.06868,0.06223 0.644806,0.896856 1.280347,1.854731 1.542887,2.325399 2.10228,3.875797 2.10228,5.826595 v 1.554575 l 1.188008,0.115985 c 1.904739,0.18595 4.066952,0.591219 4.33489,0.812495 0.136091,0.112387 0.630419,0.275915 1.098517,0.363393 0.468089,0.08748 0.906873,0.249334 0.975077,0.359682 0.06819,0.110349 0.271225,0.200632 0.451181,0.200632 0.179955,0 0.854892,0.254579 1.49987,0.565722 1.398101,0.674464 1.540545,0.689113 1.540545,0.158398 0,-0.224025 0.09053,-0.504051 0.201162,-0.622287 0.205249,-0.219342 0.543888,-1.770908 0.960608,-4.401291 0.12817,-0.80898 0.37743,-1.791748 0.553927,-2.183934 0.176489,-0.392185 0.320891,-0.87587 0.320891,-1.074862 0,-0.198993 0.09374,-0.361803 0.208307,-0.361803 0.114573,0 0.27541,-0.305491 0.357415,-0.678868 0.082,-0.373369 0.242841,-0.67886 0.357414,-0.67886 0.114566,0 0.208308,-0.137036 0.208308,-0.304528 0,-0.167485 0.605827,-1.143442 1.346276,-2.168787 1.889339,-2.616265 3.277727,-3.850439 5.648238,-5.020854 1.40121,-0.691837 1.906346,-0.861075 4.093574,-1.371488 1.378144,-0.321608 8.982834,-0.292938 11.088094,0.04184 0.93343,0.148415 2.9191,0.320287 4.4126,0.381933 2.34309,0.09672 2.78527,0.17662 3.2246,0.582704 0.79043,0.730604 0.64653,1.493516 -0.50073,2.6546 -0.55338,0.560062 -1.01078,1.137088 -1.01643,1.282297 -0.006,0.145193 -0.1079,0.297938 -0.22723,0.33943 -0.11932,0.04152 -1.06124,1.341806 -2.09316,2.889611 -1.03191,1.547797 -1.97804,2.96293 -2.1025,3.144729 -0.56153,0.820259 -3.18018,3.261275 -4.211243,3.925576 -0.32474,0.209229 -0.732015,0.514719 -0.905045,0.678868 -0.313778,0.297652 -2.546299,1.43492 -4.048355,2.062264 -2.678598,1.118736 -5.351232,1.743632 -7.457329,1.743632 -1.604631,0 -4.809871,-0.532655 -5.494563,-0.913104 -0.662743,-0.368255 -1.263456,-0.25068 -1.431976,0.280263 -0.08704,0.274228 -0.297554,0.637898 -0.46782,0.808172 -0.39982,0.39982 -0.403556,1.408689 -0.0049,1.408689 0.167395,0 0.488668,0.203658 0.713933,0.452568 0.225264,0.248918 0.497265,0.452576 0.60444,0.452576 0.254309,0 3.58188,3.327571 3.58188,3.58188 0,0.107175 0.203658,0.379176 0.452576,0.60444 0.248918,0.225265 0.452576,0.546538 0.452576,0.713933 0,0.167402 0.09497,0.304365 0.21104,0.304365 0.116066,0 0.282538,0.229114 0.369926,0.509141 0.0874,0.280035 0.221537,0.560061 0.29811,0.622295 0.478627,0.388988 2.288947,5.148673 2.288947,6.018092 0,0.284643 0.09146,0.574058 0.203234,0.643143 0.111776,0.06909 0.274431,0.834566 0.361452,1.701072 0.237328,2.36322 0.750612,2.507785 2.032028,0.572313 0.399111,-0.602818 0.447584,-1.075026 0.452576,-4.408869 0.0057,-3.717057 0.09783,-4.324524 0.962337,-6.336055 0.961954,-2.238263 1.681808,-3.168023 2.452803,-3.168023 0.687375,0 0.739658,0.286952 0.432943,2.376018 -0.155779,1.061029 -0.186456,2.027134 -0.07414,2.334182 0.105422,0.288135 0.192296,0.746363 0.193063,1.01829 6.77e-4,0.271927 0.143912,0.767586 0.318101,1.101469 0.174189,0.333875 0.385318,0.919393 0.469166,1.301147 0.08386,0.381761 0.238103,0.694112 0.342782,0.694112 0.10468,0 0.257425,0.305483 0.33943,0.67886 0.08201,0.373376 0.221806,0.678859 0.310662,0.678859 0.163113,0 0.45725,0.889329 1.047824,3.168023 0.657254,2.536014 0.283281,6.259172 -0.863717,8.598934 -0.396582,0.808971 -0.797421,1.504804 -0.890772,1.546296 -0.09334,0.04152 -0.169711,0.203903 -0.169711,0.36093 0,0.157028 -0.203658,0.469811 -0.452576,0.695075 -0.248917,0.225264 -0.452575,0.503839 -0.452575,0.619041 0,0.337725 -3.147748,3.376183 -4.819009,4.651685 -1.857366,1.417539 -2.359199,1.70485 -2.46051,1.408722 -0.111555,-0.326045 -1.093125,-8.16e-4 -1.093125,0.36186 0,0.390228 0.379372,0.412422 0.515886,0.03018 0.05873,-0.164523 0.18498,-0.198903 0.301715,-0.08217 0.116735,0.116743 0.09112,0.240044 -0.06125,0.294749 -0.144067,0.05171 -0.467339,0.272188 -0.718386,0.489924 -0.251055,0.217728 -0.820528,0.591945 -1.265511,0.831581 -0.444974,0.239636 -0.809052,0.514377 -0.809052,0.610533 0,0.09616 -0.243674,0.174825 -0.541506,0.174825 -0.297832,0 -0.597491,0.145894 -0.665915,0.32421 -0.100838,0.26276 0.291282,0.348011 2.068944,0.449803 1.206352,0.06909 2.753423,0.169213 3.437943,0.222516 0.684521,0.05334 1.364596,0.10547 1.511281,0.115919 0.845838,0.06028 1.162104,1.601425 0.329202,1.604264 -0.203291,6.77e-4 -2.548502,0.105634 -5.211576,0.2332 -3.836639,0.183781 -4.976443,0.311372 -5.489645,0.61453 -0.843783,0.498431 -0.726322,0.762931 0.382757,0.861881 2.205017,0.19675 4.178515,0.67532 4.178515,1.0133 0,0.11966 0.178201,0.22163 0.396003,0.22659 0.226161,0.005 0.0082,0.21339 -0.509141,0.48553 -0.816263,0.42971 -1.260699,0.47467 -4.525751,0.4578 -2.722788,-0.0141 -3.78354,0.0619 -4.277656,0.30648 -0.361387,0.17885 -0.832609,0.32519 -1.047164,0.32519 -0.214555,0 -0.51852,0.15472 -0.675475,0.34385 -0.248591,0.29953 -0.15737,0.33842 0.707734,0.30169 1.45797,-0.0619 4.068607,0.40954 4.465466,0.8064 0.308167,0.30817 0.302237,0.39071 -0.05652,0.78713 -0.348402,0.38497 -0.804884,0.45903 -3.492331,0.56659 -4.756928,0.19039 -8.266803,0.46063 -8.579023,0.66053 -0.519084,0.33236 -0.291919,0.5057 0.678868,0.51803 1.030556,0.0131 2.707429,0.57403 2.831855,0.94732 0.04608,0.13817 -0.969391,0.2828 -2.594389,0.36954 -1.468533,0.0784 -3.281039,0.20698 -4.027784,0.28577 -0.746754,0.0788 -4.463526,0.1654 -8.259496,0.19247 -5.581454,0.0398 -7.486168,-0.0288 -9.956653,-0.35877 z m 1.749016,-0.35267 c -0.0752,-0.0752 -0.270369,-0.0832 -0.433718,-0.0179 -0.180518,0.0723 -0.126897,0.12586 0.136718,0.13672 0.238543,0.01 0.372195,-0.0436 0.297,-0.11886 z m 7.477621,-2.57909 c 1.776503,-0.11869 3.424542,-0.31991 3.662294,-0.44716 0.237752,-0.12724 0.659146,-0.23135 0.936416,-0.23135 0.501098,0 1.888597,-0.37078 4.287101,-1.14564 1.224957,-0.39573 1.856339,-0.63679 3.305924,-1.26217 0.392186,-0.1692 0.824958,-0.30763 0.961725,-0.30763 0.136759,0 0.248657,-0.10184 0.248657,-0.22629 0,-0.12446 0.127289,-0.22734 0.282857,-0.22863 0.155575,-0.002 0.741093,-0.25189 1.301154,-0.5569 0.560062,-0.30501 1.298325,-0.67032 1.640585,-0.8118 0.34226,-0.14149 0.622295,-0.33807 0.622295,-0.43686 0,-0.0988 0.25457,-0.24351 0.565713,-0.321612 0.311152,-0.07806 0.565722,-0.241871 0.565722,-0.363956 0,-0.122094 0.112632,-0.221978 0.250297,-0.221978 1.1204,0 8.348629,-7.27158 8.348629,-8.398701 0,-0.159915 0.141938,-0.09261 0.320931,0.152166 0.176513,0.241398 0.394681,0.365147 0.484818,0.275011 0.09014,-0.09015 0.02855,-0.326992 -0.136906,-0.526335 -0.254709,-0.306902 -0.2163,-0.524458 0.250615,-1.419765 0.303272,-0.581529 0.619709,-1.109259 0.70319,-1.172732 0.08347,-0.06346 0.22648,-0.41309 0.317799,-0.776924 0.09132,-0.363834 0.302424,-0.922876 0.469117,-1.242315 0.16671,-0.319446 0.303721,-0.860837 0.304496,-1.203098 6.77e-4,-0.34226 0.08519,-0.622286 0.187614,-0.622286 0.568284,0 1.156126,-7.751668 0.720205,-9.497047 -0.543031,-2.174235 -1.240772,-4.306489 -1.409211,-4.306489 -0.09684,0 -0.176081,-0.11614 -0.176081,-0.258078 0,-0.398947 -0.962059,-2.231085 -1.171549,-2.231085 -0.102396,0 -0.186179,-0.109109 -0.186179,-0.24245 0,-0.13335 -0.127281,-0.373777 -0.282856,-0.534279 -0.155576,-0.160502 -0.588348,-0.681323 -0.961725,-1.157381 -1.736741,-2.214365 -2.865183,-2.872165 -3.184312,-1.856208 -0.08797,0.280026 -0.518218,0.848407 -0.956113,1.263064 -0.699813,0.662669 -0.894499,0.735473 -1.608521,0.60152 -0.446793,-0.08382 -0.863497,-0.231153 -0.926016,-0.327415 -0.06248,-0.09626 -0.342774,-0.24652 -0.622809,-0.333908 -0.280027,-0.0874 -0.509149,-0.253861 -0.509149,-0.369935 0,-0.116066 -0.107567,-0.21104 -0.23904,-0.21104 -0.36173,0 -1.552854,-1.368143 -1.970072,-2.262871 -0.203128,-0.435602 -0.408637,-0.868382 -0.456687,-0.961725 -0.04804,-0.09334 0.277523,-0.169711 0.7235,-0.169711 0.445977,0 0.810864,0.09373 0.810864,0.208308 0,0.291143 1.250348,0.535127 1.818411,0.354837 0.740546,-0.235044 0.458962,-0.997507 -0.572419,-1.549942 -0.497053,-0.266242 -0.955289,-0.543365 -1.018298,-0.615827 -0.110593,-0.1272 -0.994016,-0.436165 -3.62201,-1.266767 -1.862953,-0.588797 -8.112973,-0.575689 -10.296074,0.02161 -0.871213,0.238356 -1.685845,0.506629 -1.810304,0.596162 -0.124459,0.08953 -0.579351,0.238404 -1.010867,0.330825 -0.431516,0.09243 -0.940665,0.253363 -1.131436,0.357627 -0.670026,0.366207 -2.474114,1.110604 -2.691606,1.110604 -0.120919,0 -0.253787,0.07634 -0.295279,0.169711 -0.04152,0.09335 -0.479688,0.373377 -0.973796,0.622295 -2.168852,1.092611 -6.448638,4.721619 -7.587414,6.43367 -0.186684,0.280671 -0.497461,0.696804 -0.690621,0.924735 -0.193153,0.227932 -0.547256,0.778491 -0.786892,1.223473 -0.239636,0.444982 -0.514377,0.809053 -0.610533,0.809053 -0.09616,0 -0.174825,0.152745 -0.174825,0.33943 0,0.186684 -0.104354,0.33943 -0.231888,0.33943 -0.127542,0 -0.330955,0.229122 -0.452037,0.509148 -0.266291,0.615868 -0.68753,1.286726 -1.069806,1.703765 -0.155575,0.169719 -0.282857,0.400154 -0.282857,0.512085 0,0.247898 -1.403134,2.336369 -1.640584,2.441905 -0.09334,0.04152 -0.169719,0.172892 -0.169719,0.292016 0,0.25382 -0.940151,1.63441 -1.188009,1.744571 -0.09334,0.04152 -0.169711,0.171416 -0.169711,0.288738 0,0.292783 -1.637795,2.464425 -1.858606,2.464425 -0.09789,0 -0.177989,0.144254 -0.177989,0.320572 0,0.176317 -0.07814,0.354519 -0.173585,0.396003 -0.09547,0.04152 -0.579164,0.577459 -1.074863,1.191051 -0.495707,0.613584 -1.985765,2.191943 -3.311242,3.507453 -2.980107,2.957693 -3.445146,3.842364 -3.320214,6.316275 0.05408,1.070343 0.188128,1.733421 0.36226,1.791462 0.152044,0.05065 0.276446,0.220827 0.276446,0.378099 0,0.26351 0.249489,0.604824 1.334767,1.82607 0.503611,0.566693 1.264467,1.204362 2.285832,1.915734 0.435602,0.303394 0.842926,0.612547 0.905152,0.687017 0.161415,0.19317 2.238361,1.40154 3.171636,1.84527 3.49707,1.6627 5.45874,2.45375 6.084869,2.45375 0.232164,0 0.713794,0.15212 1.070287,0.33804 0.356485,0.18591 0.958731,0.33866 1.338331,0.33943 0.379601,6.8e-4 0.793874,0.10509 0.920625,0.23184 0.126743,0.12675 1.700004,0.33525 3.49614,0.46334 1.796136,0.1281 3.367529,0.27331 3.49198,0.32271 0.124459,0.0494 0.42995,0.0421 0.678868,-0.0162 0.248918,-0.0583 1.906076,-0.20311 3.682588,-0.3218 z m -9.79235,-3.1696 c -1.787539,-0.30984 -3.825986,-0.77685 -4.073175,-0.93318 -0.124459,-0.0787 -0.579351,-0.21894 -1.010867,-0.31163 -0.431525,-0.0927 -0.940665,-0.24511 -1.131444,-0.33871 -0.190771,-0.0936 -1.741023,-0.85407 -3.444999,-1.689935 -2.451016,-1.202299 -3.379813,-1.794504 -4.446642,-2.835167 -2.021326,-1.97176 -2.165043,-3.585616 -0.196398,-2.205507 0.399444,0.280026 0.760212,0.585517 0.801703,0.67886 0.04152,0.09334 0.21241,0.169719 0.379837,0.169719 0.167427,0 0.440521,0.127281 0.606888,0.282856 0.318182,0.297555 1.34444,0.82225 2.67159,1.365917 2.893844,1.185464 7.287216,1.702826 11.258533,1.325795 1.501126,-0.142517 3.407349,-0.259121 4.236051,-0.259121 1.732295,0 2.688539,-0.347742 2.113168,-0.768458 -0.192777,-0.140968 -0.422878,-0.585795 -0.511335,-0.988503 -0.126261,-0.574873 -0.08689,-0.732203 0.183242,-0.732203 0.18923,0 0.400016,0.09055 0.468416,0.20122 0.06843,0.110666 0.404331,0.271486 0.746526,0.357374 0.342186,0.08588 0.692578,0.270092 0.778645,0.409355 0.08607,0.139271 0.825358,0.295801 1.642852,0.347855 1.640169,0.104435 1.921394,-0.173096 1.010623,-0.997336 -0.675279,-0.61112 -1.163572,-1.615307 -0.87282,-1.795002 0.128578,-0.07944 0.640492,0.06754 1.137569,0.326592 0.497086,0.259097 1.044913,0.471083 1.217397,0.471083 0.172484,0 0.347545,0.07634 0.389037,0.169711 0.100928,0.227099 1.438395,0.961724 1.750925,0.961724 0.365008,0 0.301575,-0.954172 -0.101703,-1.529934 -0.192312,-0.274562 -0.410399,-1.012075 -0.484639,-1.638929 -0.127982,-1.080645 -0.110813,-1.130701 0.331249,-0.965452 0.552288,0.206447 1.658782,1.07036 2.839074,2.216649 0.529973,0.514703 0.983128,0.776647 1.199754,0.693525 0.191464,-0.07349 0.441614,-0.133586 0.555894,-0.133586 0.280711,0 0.265394,-0.842837 -0.01852,-1.01829 -0.124459,-0.07691 -0.226921,-0.312049 -0.227687,-0.522501 -7.67e-4,-0.21046 -0.153504,-0.674325 -0.33943,-1.03081 -0.448204,-0.859394 -0.440252,-1.727858 0.01582,-1.727858 0.194621,0 0.627393,0.254415 0.961717,0.565371 1.231597,1.145506 2.582881,2.150076 2.892148,2.150076 0.421614,0 0.402422,-0.692554 -0.04837,-1.746047 -1.049161,-2.451791 -1.017139,-2.271582 -0.42986,-2.418985 0.752586,-0.188887 1.238187,0.03931 2.201502,1.034716 1.419815,1.46704 2.479449,0.873579 1.565481,-0.876775 -0.919214,-1.760411 -1.159274,-3.460399 -0.488652,-3.460399 0.128366,0 0.616332,0.38186 1.084365,0.848579 1.258831,1.255283 2.100175,1.866877 2.568199,1.866877 0.343834,0 0.395244,-0.128171 0.294977,-0.735441 -0.214677,-1.30029 -0.808278,-3.11145 -1.019758,-3.11145 -0.112877,0 -0.205232,-0.152746 -0.205232,-0.33943 0,-0.186693 -0.09187,-0.33943 -0.204147,-0.33943 -0.318068,0 -0.71775,-1.36798 -0.508782,-1.74139 0.151106,-0.27001 0.310874,-0.201031 0.844908,0.364772 0.362203,0.383768 0.742537,0.69775 0.845178,0.69775 0.102632,0 0.3208,0.127289 0.484802,0.282865 0.164009,0.155568 0.56405,0.475324 0.888986,0.710556 0.324935,0.235231 0.590794,0.55529 0.590794,0.711224 0,0.582532 0.688721,0.561774 0.91277,-0.02749 0.235672,-0.619889 0.07276,-1.677134 -0.258436,-1.677134 -0.110969,0 -0.201758,-0.13206 -0.201758,-0.293468 0,-0.161408 -0.458228,-0.991145 -1.018289,-1.843851 -0.560062,-0.852714 -1.018298,-1.648154 -1.018298,-1.767645 0,-0.268698 1.214647,0.0084 1.320012,0.301094 0.04152,0.115259 0.246961,0.209564 0.456613,0.209564 0.395644,0 2.06498,1.032025 2.340823,1.447146 0.184417,0.277555 0.226267,0.233715 0.595444,-0.623869 0.246658,-0.572957 0.211716,-0.762031 -0.30315,-1.640584 -0.320059,-0.546147 -0.677531,-0.992997 -0.794372,-0.992997 -0.11684,0 -0.276331,-0.25457 -0.354421,-0.565722 -0.07806,-0.311143 -0.210452,-0.565714 -0.294129,-0.565714 -0.188569,0 -0.733255,-1.403844 -0.597401,-1.539697 0.257351,-0.257352 1.373388,0.285295 2.251582,1.094789 0.535511,0.49361 1.03864,0.897484 1.118068,0.897484 0.217874,0 0.173226,-1.009937 -0.05555,-1.255902 -0.109957,-0.118228 -0.429738,-0.872959 -0.710604,-1.677175 -0.280875,-0.804216 -0.649138,-1.600667 -0.81836,-1.769896 -0.491343,-0.491336 -0.385089,-1.180505 0.181995,-1.180505 0.928471,0 2.232798,0.739503 2.377559,1.347989 0.07528,0.316502 0.21068,0.677285 0.300866,0.801744 0.09018,0.124459 0.337268,0.788344 0.549091,1.475303 0.475047,1.540619 0.393336,5.733751 -0.152052,7.802483 -0.196872,0.746745 -0.452519,1.714131 -0.568112,2.149733 -0.247124,0.931309 -1.450597,3.473865 -1.695885,3.582884 -0.09334,0.04152 -0.169711,0.198976 -0.169711,0.349976 0,0.259937 -0.281568,0.679398 -1.188009,1.769782 -0.217801,0.262001 -0.396002,0.568976 -0.396002,0.682155 0,0.378817 -4.622054,4.805957 -5.996625,5.743734 -1.747996,1.192552 -4.299768,2.580157 -4.744849,2.580157 -0.19064,0 -0.346615,0.0801 -0.346615,0.177932 0,0.09787 -0.738263,0.425198 -1.640585,0.727408 -0.902321,0.30221 -1.742417,0.61793 -1.866876,0.70163 -0.124459,0.0837 -0.658526,0.22345 -1.186818,0.31059 -0.5283,0.0871 -1.010639,0.23948 -1.071877,0.33856 -0.06125,0.0991 -0.698207,0.25278 -1.415484,0.34155 -0.717276,0.0888 -1.432775,0.267 -1.58999,0.39607 -0.36239,0.2975 -12.167861,0.44555 -13.743978,0.17235 z m -0.400718,-3.98167 c -0.0752,-0.0752 -0.270369,-0.08323 -0.433718,-0.01786 -0.180518,0.07227 -0.126898,0.125854 0.13671,0.13671 0.238551,0.0098 0.372202,-0.04364 0.297008,-0.118848 z m 19.52201,-0.994725 c 0,-0.124451 -0.101833,-0.226284 -0.226284,-0.226284 -0.124459,0 -0.226292,0.101833 -0.226292,0.226284 0,0.124459 0.101833,0.226292 0.226292,0.226292 0.124451,0 0.226284,-0.101833 0.226284,-0.226292 z m -2.941739,-0.32607 c 0,-0.238845 -0.434273,-0.339185 -0.563438,-0.130193 -0.07814,0.12649 0.01664,0.229979 0.210656,0.229979 0.194033,0 0.352782,-0.04486 0.352782,-0.09979 z m -6.788622,-0.35279 c 0,-0.124459 -0.107844,-0.226284 -0.239644,-0.226284 -0.1318,0 -0.176709,0.101825 -0.09979,0.226284 0.07691,0.124459 0.184751,0.226292 0.239636,0.226292 0.05489,0 0.09979,-0.101833 0.09979,-0.226292 z m 14.369258,-2.036587 c 0.07691,-0.124459 -0.02488,-0.226284 -0.226292,-0.226284 -0.201375,0 -0.303208,0.101825 -0.226284,0.226284 0.07691,0.124459 0.178748,0.226292 0.226284,0.226292 0.04755,0 0.149368,-0.101833 0.226292,-0.226292 z m -2.60231,-2.60231 c 0,-0.186684 -0.101825,-0.33943 -0.226284,-0.33943 -0.124459,0 -0.226292,0.152746 -0.226292,0.33943 0,0.186693 0.101833,0.339438 0.226292,0.339438 0.124459,0 0.226284,-0.152745 0.226284,-0.339438 z m 3.168023,-0.33943 c 0,-0.124459 -0.04486,-0.226283 -0.09978,-0.226283 -0.05489,0 -0.162721,0.101824 -0.239645,0.226283 -0.07691,0.124459 -0.03205,0.226292 0.09979,0.226292 0.1318,0 0.239636,-0.101833 0.239635,-0.226292 z m 7.241206,-4.073174 c 0,-0.124459 -0.101833,-0.226284 -0.226292,-0.226284 -0.124459,0 -0.226284,0.101825 -0.226284,0.226284 0,0.124459 0.101825,0.226292 0.226284,0.226292 0.124459,0 0.226292,-0.101833 0.226292,-0.226292 z M 44.813321,59.989154 c 0.03312,-2.778977 -0.109663,-3.450888 -0.733491,-3.450888 -0.271348,0 -0.437324,-0.155624 -0.437324,-0.410048 0,-0.435773 2.179244,-1.616702 2.677129,-1.450743 0.188054,0.06272 0.26461,1.195749 0.26461,3.916236 v 3.828034 h -0.899972 -0.899964 z m 4.938948,1.866869 c 0,-0.51857 0.08381,-0.565722 1.005679,-0.565722 1.172161,0 2.338955,-0.797389 2.09542,-1.432016 -0.114321,-0.297914 -0.340245,-0.34483 -1.135644,-0.235811 -0.920894,0.126229 -1.052849,0.07618 -1.818623,-0.689594 -0.654456,-0.654447 -0.825521,-1.000109 -0.824852,-1.666726 0.0016,-1.235691 0.682489,-2.189757 1.893948,-2.652414 0.98789,-0.377284 1.060254,-0.375816 1.856982,0.03768 0.74425,0.38624 1.130506,0.906408 1.944877,2.619242 0.246634,0.518724 0.239717,1.923686 -0.01028,2.078169 -0.108383,0.06696 -0.259758,0.4353 -0.336396,0.81849 -0.273583,1.367906 -1.594411,2.250922 -3.370001,2.252961 -1.237436,0.0016 -1.301154,-0.02618 -1.301154,-0.56423 z m 3.309365,-4.104952 c 0.254995,-1.015974 -0.155037,-1.768135 -1.008787,-1.850531 -0.99285,-0.09583 -1.395427,0.286559 -1.395427,1.325436 0,0.94763 0.16693,1.078427 1.409986,1.104723 0.730417,0.0155 0.864492,-0.06272 0.994228,-0.579628 z m 4.470401,4.342076 c -0.207719,-0.54131 0.118628,-0.80283 1.00223,-0.803115 1.111819,-3.67e-4 2.291427,-0.942949 1.848288,-1.476901 -0.198952,-0.239726 -0.494443,-0.30904 -0.919458,-0.215689 -1.46797,0.322415 -2.849449,-1.21884 -2.622921,-2.926291 0.132763,-1.000672 1.123092,-2.060396 2.173812,-2.326141 0.687236,-0.173805 2.214487,0.613943 2.844669,1.467277 0.610631,0.826866 0.664765,4.279859 0.07634,4.868304 -0.206439,0.20644 -0.409893,0.457209 -0.452119,0.557272 -0.04225,0.100063 -0.397985,0.407373 -0.79057,0.682906 -0.860267,0.603771 -2.950948,0.717814 -3.16025,0.172378 z m 2.950385,-3.881931 c 0.511662,-0.196342 0.463335,-1.507423 -0.07349,-1.993228 -0.275182,-0.249032 -0.705401,-0.364169 -1.188009,-0.31793 -0.699748,0.06705 -0.761982,0.13804 -0.828253,0.944866 -0.0394,0.479802 -0.01713,1.014407 0.04951,1.188008 0.124337,0.323998 1.375598,0.433335 2.040266,0.178284 z m 5.593428,3.636063 c -0.683648,-0.575257 -1.3886,-2.377379 -1.3886,-3.549801 0,-1.854952 1.463076,-3.795799 2.861407,-3.795799 1.519624,0 2.455387,0.917541 2.904015,2.847467 0.371371,1.597592 -0.02374,3.478889 -0.929188,4.42395 -0.850741,0.887975 -2.439858,0.922166 -3.447634,0.07414 z m 2.440877,-1.253244 c 0.623257,-0.623257 0.696274,-0.839092 0.696274,-2.058226 0,-1.68281 -0.584115,-2.676402 -1.5734,-2.676402 -0.960363,0 -1.368339,0.797397 -1.368339,2.674444 0,1.34113 0.07749,1.642583 0.554914,2.157694 0.703354,0.758932 0.842119,0.750922 1.690551,-0.09751 z M 41.832203,54.049103 c 0.133219,-0.248918 0.365922,-0.444534 0.517109,-0.434713 0.207198,0.01346 0.205241,0.046 -0.0082,0.132003 -0.155568,0.0628 -0.282857,0.258396 -0.282857,0.434714 0,0.176317 -0.105414,0.320572 -0.234253,0.320572 -0.158813,0 -0.156252,-0.145731 0.0082,-0.452576 z m 1.810303,-2.881496 c 0,-0.32589 0.937492,-1.234761 1.10297,-1.069291 0.06468,0.06468 -0.157019,0.392242 -0.492681,0.727904 -0.335662,0.335662 -0.610289,0.489288 -0.610289,0.341387 z m 2.037673,-3.370694 c 0.0016,-0.290034 1.586393,-1.966124 1.726528,-1.825988 0.06574,0.06574 -0.296037,0.547851 -0.80402,1.071282 -0.507974,0.523439 -0.923104,0.863056 -0.922508,0.754706 z m 3.091988,-4.081127 c -0.217719,-0.21772 0.35987,-1.195455 0.786133,-1.330746 0.490039,-0.155535 0.872828,0.03491 0.872828,0.434273 0,0.30713 -1.459577,1.095857 -1.658961,0.896473 z m 4.148125,-2.565067 c 0,-0.124459 -0.149157,-0.226292 -0.33147,-0.226292 -0.411312,0 -0.877966,-0.828065 -0.711346,-1.262265 0.14635,-0.381386 3.305695,-0.472616 3.305695,-0.09546 0,0.124459 0.173112,0.226292 0.38469,0.226292 0.529263,0 0.183601,0.307294 -1.132096,1.006463 -1.175456,0.624636 -1.515473,0.703443 -1.515473,0.351265 z M 54.8956,39.882565 c -0.0752,-0.0752 -0.27037,-0.08324 -0.433719,-0.01786 -0.180518,0.07227 -0.126897,0.125862 0.13671,0.136718 0.238543,0.0098 0.372195,-0.04364 0.297009,-0.118848 z m 2.784817,-1.990291 c 0.402545,-0.384755 1.802213,-0.707807 1.802213,-0.415954 0,0.114647 -0.393671,0.326396 -0.874827,0.470553 -1.14066,0.341746 -1.330379,0.33058 -0.927386,-0.05457 z m 2.481081,42.858761 c 0,-0.12446 -0.152746,-0.22629 -0.33943,-0.22629 -0.186693,0 -0.339438,0.10183 -0.339438,0.22629 0,0.12446 0.152745,0.22628 0.339438,0.22628 0.186684,0 0.33943,-0.10182 0.33943,-0.22628 z m 13.577252,-3.86025 c 0,-0.11711 -0.101834,-0.21293 -0.226292,-0.21293 -0.124459,0 -0.226284,0.15876 -0.226284,0.35279 0,0.19403 0.101825,0.28985 0.226284,0.21293 0.124458,-0.0769 0.226292,-0.23568 0.226292,-0.35279 z m 2.149725,0.0134 c 0.07691,-0.12446 -0.02488,-0.22629 -0.226284,-0.22629 -0.201374,0 -0.303207,0.10183 -0.226284,0.22629 0.07691,0.12446 0.178748,0.22628 0.226284,0.22628 0.04755,0 0.149369,-0.10182 0.226284,-0.22628 z m 9.390939,-9.051502 c 0,-0.124459 -0.101833,-0.226292 -0.226292,-0.226292 -0.124459,0 -0.226284,0.101833 -0.226284,0.226292 0,0.124459 0.101825,0.226284 0.226284,0.226284 0.124459,0 0.226292,-0.101825 0.226292,-0.226284 z m 3.620599,-0.905151 c 0,-0.124459 -0.101833,-0.226284 -0.226292,-0.226284 -0.124459,0 -0.226284,0.101825 -0.226284,0.226284 0,0.124459 0.101825,0.226292 0.226284,0.226292 0.124459,0 0.226292,-0.101833 0.226292,-0.226292 z m 0.67886,-2.715447 c 0,-0.124459 -0.04486,-0.226292 -0.09979,-0.226292 -0.05489,0 -0.162729,0.101833 -0.239644,0.226292 -0.07691,0.124459 -0.03197,0.226283 0.09979,0.226283 0.131808,0 0.239644,-0.101824 0.239644,-0.226283 z m 5.143333,-2.625882 c -0.0752,-0.0752 -0.27037,-0.08323 -0.433719,-0.01786 -0.180518,0.07227 -0.126897,0.125853 0.13671,0.13671 0.238543,0.0099 0.372195,-0.04364 0.297009,-0.118848 z m -1.97531,-0.315878 c 0,-0.12445 -0.101825,-0.226283 -0.226284,-0.226283 -0.124459,0 -0.226292,0.101833 -0.226292,0.226283 0,0.124459 0.101833,0.226292 0.226292,0.226292 0.124459,0 0.226284,-0.101833 0.226284,-0.226292 z m -5.88347,-0.565713 c 0,-0.186685 -0.101833,-0.33943 -0.226292,-0.33943 -0.124459,0 -0.226284,0.152745 -0.226284,0.33943 0,0.186684 0.101825,0.33943 0.226284,0.33943 0.124459,0 0.226292,-0.152746 0.226292,-0.33943 z m 1.357719,-0.792006 c 0,-0.124459 -0.101825,-0.226292 -0.226284,-0.226292 -0.124459,0 -0.226292,0.101833 -0.226292,0.226292 0,0.124459 0.101833,0.226284 0.226292,0.226284 0.124459,0 0.226284,-0.101825 0.226284,-0.226284 z m 4.299467,-0.326078 c 0,-0.05489 -0.101833,-0.162721 -0.226292,-0.239644 -0.124451,-0.07691 -0.226284,-0.03205 -0.226284,0.09979 0,0.1318 0.101833,0.239636 0.226284,0.239636 0.124459,0 0.226292,-0.04486 0.226292,-0.09979 z m -0.297995,-3.563243 c -0.07227,-0.180518 -0.125862,-0.126898 -0.136718,0.136718 -0.0098,0.238543 0.04364,0.372195 0.118855,0.297 0.0752,-0.0752 0.08323,-0.270361 0.01786,-0.433718 z M 33.798999,53.370268 c 0.07691,-0.124459 0.03205,-0.226292 -0.09979,-0.226292 -0.131807,0 -0.239644,0.101833 -0.239644,0.226292 0,0.124459 0.04486,0.226284 0.09979,0.226284 0.05489,0 0.162721,-0.101825 0.239644,-0.226284 z m 64.002267,0.05661 c 0.05652,-0.09335 -0.03393,-0.295988 -0.200974,-0.450324 -0.332285,-0.307 -0.681225,0.0049 -0.440782,0.393751 0.165103,0.26714 0.49658,0.296364 0.641756,0.05661 z m -1.3682,-0.509148 c -0.06509,-0.248918 -0.284676,-0.444534 -0.487959,-0.434714 -0.234611,0.01134 -0.266299,0.05954 -0.08675,0.132004 0.155567,0.0628 0.282856,0.258396 0.282856,0.434713 0,0.17631 0.0923,0.320572 0.205102,0.320572 0.112812,0 0.151848,-0.203657 0.08675,-0.452575 z M 27.349807,51.559997 c 0,-0.124459 -0.101833,-0.226284 -0.226292,-0.226284 -0.124459,0 -0.226284,0.101825 -0.226284,0.226284 0,0.124459 0.101825,0.226292 0.226284,0.226292 0.124459,0 0.226292,-0.101833 0.226292,-0.226292 z m 2.262871,-0.792006 c 0,-0.186684 -0.04005,-0.33943 -0.08893,-0.33943 -0.04894,0 -0.14755,0.152746 -0.219188,0.33943 -0.07161,0.186685 -0.03165,0.33943 0.08893,0.33943 0.120552,0 0.219187,-0.152745 0.219187,-0.33943 z m -0.905151,-0.113146 c 0,-0.124459 -0.101825,-0.226284 -0.226284,-0.226284 -0.124459,0 -0.226292,0.101825 -0.226292,0.226284 0,0.124459 0.101833,0.226292 0.226292,0.226292 0.124459,0 0.226284,-0.101833 0.226284,-0.226292 z m 3.846891,-0.09979 c 0,-0.05489 -0.101833,-0.16272 -0.226284,-0.239644 -0.124459,-0.07691 -0.226292,-0.03197 -0.226292,0.09979 0,0.1318 0.101833,0.239636 0.226292,0.239636 0.124451,0 0.226284,-0.04486 0.226284,-0.09979 z m -6.892462,-0.82041 c 0.232181,-0.375685 0.02382,-0.427781 -0.301086,-0.07528 -0.160486,0.174132 -0.191954,0.316608 -0.0699,0.316608 0.122012,0 0.288974,-0.108603 0.371011,-0.241341 z m 6.439886,0.01509 c 0,-0.124459 -0.04486,-0.226292 -0.09979,-0.226292 -0.05489,0 -0.162729,0.101833 -0.239644,0.226292 -0.07691,0.124451 -0.03205,0.226284 0.09979,0.226284 0.131808,0 0.239644,-0.101833 0.239644,-0.226284 z m 63.586795,-0.226292 c 0,-0.124459 -0.101825,-0.226284 -0.226284,-0.226284 -0.124459,0 -0.226292,0.101825 -0.226292,0.226284 0,0.124459 0.101833,0.226292 0.226292,0.226292 0.124459,0 0.226284,-0.101833 0.226284,-0.226292 z M 39.116756,47.839645 c 0,-0.05489 -0.101833,-0.162729 -0.226284,-0.239644 -0.124459,-0.07691 -0.226292,-0.03205 -0.226292,0.09979 0,0.131807 0.101833,0.239644 0.226292,0.239644 0.124451,0 0.226284,-0.04486 0.226284,-0.09979 z m 2.096651,-2.898527 c 0.06582,-0.17157 -0.09711,-0.295344 -0.414094,-0.314601 -0.421679,-0.02561 -0.470724,0.02732 -0.253991,0.274252 0.339878,0.38721 0.530633,0.398735 0.668085,0.04037 z m -2.322935,-4.342679 c 0,-0.238837 -0.434273,-0.339185 -0.563438,-0.130185 -0.07814,0.126482 0.01664,0.229979 0.210648,0.229979 0.194033,0 0.35279,-0.04494 0.35279,-0.09979 z m 36.371002,-1.847228 c -0.0752,-0.0752 -0.27037,-0.08323 -0.433719,-0.01786 -0.180518,0.07227 -0.126897,0.125853 0.136718,0.136718 0.238543,0.0098 0.372195,-0.04364 0.297001,-0.118856 z m 8.191732,-0.259285 c -0.03246,-0.346689 -0.405448,-1.065107 -0.420766,-0.810512 -0.0087,0.145396 -0.07773,0.425423 -0.15326,0.622286 -0.09013,0.234889 -0.01232,0.357945 0.226284,0.357945 0.200012,0 0.356485,-0.07634 0.347742,-0.169719 z m -41.507857,-1.4143 c 0.07691,-0.124451 0.03205,-0.226284 -0.09979,-0.226284 -0.131808,0 -0.239644,0.101833 -0.239644,0.226284 0,0.124459 0.04486,0.226292 0.09979,0.226292 0.05489,0 0.162729,-0.101833 0.239644,-0.226292 z m 7.717346,-0.843856 c -0.23002,-0.230028 -0.41982,0.116286 -0.231088,0.421654 0.142574,0.230681 0.195868,0.23086 0.272522,8.16e-4 0.05245,-0.157223 0.03377,-0.347374 -0.04143,-0.422568 z m 29.661529,-0.782585 c -0.07227,-0.18051 -0.125853,-0.12689 -0.136709,0.136718 -0.0098,0.238543 0.04364,0.372194 0.118847,0.297 0.0752,-0.0752 0.08323,-0.270361 0.01786,-0.433718 z M 54.278019,33.909603 c 0,-0.124459 -0.101825,-0.226284 -0.226284,-0.226284 -0.124459,0 -0.226292,0.101825 -0.226292,0.226284 0,0.124459 0.101833,0.226292 0.226292,0.226292 0.124459,0 0.226284,-0.101833 0.226284,-0.226292 z m -1.114462,-0.288518 c -0.02798,-0.270573 -0.338369,-0.218168 -0.43561,0.07357 -0.04975,0.149353 0.03165,0.230811 0.181032,0.181032 0.149352,-0.04975 0.263909,-0.164344 0.254578,-0.254578 z m 1.114462,-0.390342 c 0,-0.124459 -0.04486,-0.226292 -0.09979,-0.226292 -0.05489,0 -0.162729,0.101833 -0.239644,0.226292 -0.07691,0.124459 -0.03205,0.226284 0.09979,0.226284 0.131808,0 0.239644,-0.101825 0.239644,-0.226284 z m -2.262871,-0.678868 c 0,-0.124451 -0.101833,-0.226284 -0.226292,-0.226284 -0.124459,0 -0.226284,0.101833 -0.226284,0.226284 0,0.124459 0.101825,0.226292 0.226284,0.226292 0.124459,0 0.226292,-0.101833 0.226292,-0.226292 z m 11.62249,-0.565714 c -0.07161,-0.186684 -0.170274,-0.339429 -0.219188,-0.339429 -0.04894,0 -0.08893,0.152745 -0.08893,0.339429 0,0.186685 0.09864,0.33943 0.219187,0.33943 0.120552,0 0.160568,-0.152745 0.08893,-0.33943 z M 38.777326,31.873015 c 0.07691,-0.124459 -0.01892,-0.226283 -0.212932,-0.226283 -0.194033,0 -0.35279,0.101824 -0.35279,0.226283 0,0.124459 0.09582,0.226292 0.212932,0.226292 0.117118,0 0.275866,-0.101833 0.35279,-0.226292 z m 11.653802,0 c 0,-0.124459 -0.107836,-0.226283 -0.239636,-0.226283 -0.131808,0 -0.176709,0.101824 -0.09979,0.226283 0.07692,0.124459 0.18476,0.226292 0.239644,0.226292 0.05489,0 0.09979,-0.101833 0.09979,-0.226292 z m 9.504077,-0.326077 c 0,-0.05489 -0.101824,-0.162721 -0.226283,-0.239636 -0.124459,-0.07692 -0.226292,-0.03205 -0.226292,0.09978 0,0.1318 0.101833,0.239645 0.226292,0.239645 0.124459,0 0.226283,-0.04494 0.226283,-0.09979 z m -5.657186,-0.918504 c 0,-0.186685 -0.101825,-0.33943 -0.226284,-0.33943 -0.124459,0 -0.226292,0.152745 -0.226292,0.33943 0,0.186692 0.101833,0.33943 0.226292,0.33943 0.124459,0 0.226284,-0.152738 0.226284,-0.33943 z m 5.204611,-0.901653 c 0,-0.03369 -0.152738,-0.187989 -0.33943,-0.342929 -0.283314,-0.235125 -0.33943,-0.20347 -0.33943,0.19148 0,0.327636 0.104402,0.433115 0.33943,0.342929 0.186692,-0.07161 0.33943,-0.157802 0.33943,-0.19148 z m 2.625881,-0.734217 c -0.230028,-0.23002 -0.41982,0.116286 -0.231088,0.421663 0.142566,0.23068 0.195869,0.230859 0.272514,8.15e-4 0.05245,-0.157223 0.03377,-0.347382 -0.04143,-0.422576 z m 2.126161,-0.400718 c 0,-0.186684 -0.09864,-0.33943 -0.219187,-0.33943 -0.120553,0 -0.160576,0.152746 -0.08893,0.33943 0.07161,0.186685 0.170265,0.33943 0.21918,0.33943 0.04894,0 0.08894,-0.152745 0.08894,-0.33943 z m 32.5854,-0.918504 c 0,-0.194033 -0.103489,-0.288827 -0.229978,-0.210647 -0.126482,0.07814 -0.171392,0.236928 -0.09979,0.352781 0.193984,0.313868 0.329764,0.255346 0.329764,-0.142134 z M 60.316078,27.304835 c -0.07227,-0.180518 -0.125862,-0.126898 -0.136718,0.136718 -0.0098,0.238543 0.04364,0.372194 0.118847,0.297 0.0752,-0.0752 0.08324,-0.270361 0.01786,-0.433718 z m 25.352936,-0.271038 c 0.891098,-0.737064 1.521101,-1.165261 2.099555,-1.427017 0.186693,-0.08448 0.973536,-0.53954 1.748551,-1.011242 0.775008,-0.471703 1.666017,-0.922126 1.980015,-1.000933 0.313998,-0.07879 0.570901,-0.234081 0.570901,-0.34505 0,-0.11096 0.127289,-0.202377 0.282857,-0.203144 0.155576,-6.77e-4 0.551986,-0.141816 0.880919,-0.313443 0.871157,-0.454542 3.29595,-1.269173 3.777742,-1.269173 0.227671,0 0.490259,-0.07634 0.58352,-0.169565 0.223877,-0.223877 2.259249,-0.747259 3.469896,-0.892264 0.88268,-0.105716 1.21368,-0.352929 0.792,-0.591496 -0.28779,-0.162819 -5.187056,0.236642 -6.446809,0.525633 -2.187173,0.501751 -5.833195,1.959427 -6.281864,2.511487 -0.06223,0.07659 -0.34226,0.210713 -0.622287,0.29811 -0.280035,0.08739 -0.509149,0.253852 -0.509149,0.369926 0,0.116074 -0.127289,0.212043 -0.282857,0.213258 -0.155575,8.16e-4 -0.639268,0.415595 -1.07487,0.920829 -0.435603,0.505234 -1.120588,1.293414 -1.522186,1.751504 -1.15991,1.323079 -0.790554,1.744774 0.554066,0.63258 z M 59.214805,26.500619 c -0.09568,-0.828946 -0.863611,-1.013102 -0.863611,-0.2071 0,0.509206 0.231977,0.759454 0.750465,0.809591 0.101613,0.0098 0.152525,-0.261291 0.113146,-0.602491 z m 32.174371,0.520568 c 0,-0.05489 -0.101833,-0.162721 -0.226292,-0.239636 -0.124459,-0.07691 -0.226284,-0.03205 -0.226284,0.09979 0,0.1318 0.101825,0.239644 0.226284,0.239644 0.124459,0 0.226292,-0.04494 0.226292,-0.09979 z m -35.753429,-1.03165 c 0,-0.124451 -0.101833,-0.226284 -0.226292,-0.226284 -0.124459,0 -0.226284,0.101833 -0.226284,0.226284 0,0.124459 0.101825,0.226292 0.226284,0.226292 0.124459,0 0.226292,-0.101833 0.226292,-0.226292 z m -1.357728,-0.67886 c 0,-0.124459 -0.152745,-0.226284 -0.33943,-0.226284 -0.186684,0 -0.33943,0.101825 -0.33943,0.226284 0,0.124459 0.152746,0.226292 0.33943,0.226292 0.186685,0 0.33943,-0.101833 0.33943,-0.226292 z m -4.52575,-0.452576 c 0,-0.124459 -0.04486,-0.226283 -0.09979,-0.226283 -0.05489,0 -0.162729,0.101824 -0.239644,0.226283 -0.07691,0.124459 -0.03197,0.226292 0.09978,0.226292 0.131808,0 0.239645,-0.101833 0.239645,-0.226292 z m 5.20461,-0.226283 c 0,-0.124459 -0.101825,-0.226292 -0.226284,-0.226292 -0.124459,0 -0.226284,0.101833 -0.226284,0.226292 0,0.124459 0.101825,0.226283 0.226284,0.226283 0.124459,0 0.226284,-0.101824 0.226284,-0.226283 z m 39.826606,0 c 0,-0.124459 -0.101825,-0.226292 -0.226284,-0.226292 -0.124459,0 -0.226292,0.101833 -0.226292,0.226292 0,0.124459 0.101833,0.226283 0.226292,0.226283 0.124459,0 0.226284,-0.101824 0.226284,-0.226283 z m 5.822195,-1.04187 c -0.0752,-0.0752 -0.27037,-0.08323 -0.43372,-0.01786 -0.180521,0.07227 -0.1269,0.125854 0.13672,0.136718 0.23854,0.0098 0.37219,-0.04364 0.297,-0.118855 z M 84.616101,22.425511 c 0.312897,-0.34226 0.723932,-0.72412 0.913414,-0.848579 0.189482,-0.124459 1.15265,-0.760872 2.140361,-1.414268 0.98772,-0.653387 1.92314,-1.187992 2.078716,-1.188008 0.155567,-1.7e-5 0.282857,-0.09053 0.282857,-0.20113 0,-0.110609 0.356403,-0.267971 0.792005,-0.34969 0.435603,-0.08172 0.792006,-0.236839 0.792006,-0.344724 0,-0.107877 0.406786,-0.264864 0.903969,-0.348867 0.497176,-0.084 0.957785,-0.239807 1.023567,-0.346248 0.06582,-0.106434 0.57671,-0.262066 1.13541,-0.345849 0.558682,-0.08378 1.065996,-0.233552 1.127349,-0.332815 0.06134,-0.09927 0.543781,-0.247385 1.072081,-0.329137 1.359685,-0.210427 2.4314,-0.568968 2.4314,-0.813432 0,-0.554548 -6.403445,0.05652 -8.485782,0.809811 -1.087529,0.393409 -3.733744,1.77957 -3.733744,1.955847 0,0.106498 -0.140895,0.193633 -0.313101,0.193633 -0.282082,0 -0.931726,0.645712 -2.309828,2.295873 -0.381379,0.45667 -0.99767,1.7851 -0.99767,2.1505 0,0.294504 0.672359,-0.02374 1.14699,-0.542917 z M 54.355432,22.041033 c 0.0841,-0.219163 0.01705,-0.286176 -0.202084,-0.202075 -0.180347,0.06917 -0.327905,0.216765 -0.327905,0.327905 0,0.325319 0.392635,0.232099 0.529989,-0.12583 z m 1.054023,0.101621 c 0,-0.124459 -0.101825,-0.226292 -0.226284,-0.226292 -0.124459,0 -0.226292,0.101833 -0.226292,0.226292 0,0.124459 0.101833,0.226284 0.226292,0.226284 0.124459,0 0.226284,-0.101825 0.226284,-0.226284 z m 1.749016,-0.363002 c -0.0752,-0.0752 -0.270369,-0.08324 -0.433718,-0.01786 -0.180518,0.07227 -0.126898,0.125853 0.136718,0.13671 0.238543,0.0098 0.372194,-0.04364 0.297,-0.118848 z m 45.545079,-0.315857 c 0,-0.124459 -0.15274,-0.226292 -0.33943,-0.226292 -0.18668,0 -0.33943,0.101833 -0.33943,0.226292 0,0.12445 0.15275,0.226283 0.33943,0.226283 0.18669,0 0.33943,-0.101833 0.33943,-0.226283 z M 42.449783,21.100784 c -0.0752,-0.0752 -0.270369,-0.08323 -0.433718,-0.01786 -0.180518,0.07227 -0.126898,0.125862 0.136718,0.136718 0.238543,0.0098 0.372194,-0.04364 0.297,-0.118856 z M 57.52476,19.532213 c -0.187345,-0.488195 -0.388042,-0.408613 -0.821932,0.325907 -0.546481,0.925118 -0.486702,1.027751 0.280418,0.481514 0.409102,-0.291306 0.619294,-0.604709 0.541514,-0.807421 z m 1.731586,0.573854 c 0,-0.124459 -0.152746,-0.226292 -0.33943,-0.226292 -0.186693,0 -0.33943,0.101833 -0.33943,0.226292 0,0.124459 0.152737,0.226284 0.33943,0.226284 0.186684,0 0.33943,-0.101825 0.33943,-0.226284 z m 43.447204,-1.244582 c 0,-0.186684 -0.15274,-0.33943 -0.33943,-0.33943 -0.35336,0 -0.44895,0.267629 -0.18858,0.527999 0.26038,0.260378 0.52801,0.164792 0.52801,-0.188569 z M 54.812429,18.182626 c 0.0941,-0.245232 -0.0248,-0.339439 -0.428368,-0.339439 -0.345686,0 -0.558618,0.129386 -0.558618,0.339439 0,0.186684 0.192769,0.339429 0.428368,0.339429 0.235598,0 0.48698,-0.152745 0.558618,-0.339429 z m 30.580123,-0.792014 c 0.07691,-0.124451 0.03197,-0.226284 -0.09979,-0.226284 -0.131808,0 -0.239644,0.101833 -0.239644,0.226284 0,0.124459 0.04486,0.226292 0.09979,0.226292 0.05489,0 0.162729,-0.101833 0.239644,-0.226292 z m -28.62537,-0.09979 c 0,-0.05489 -0.101833,-0.162721 -0.226283,-0.239644 -0.124459,-0.07691 -0.226292,-0.03197 -0.226292,0.09979 0,0.131799 0.101833,0.239636 0.226292,0.239636 0.12445,0 0.226283,-0.04486 0.226283,-0.09979 z m 46.090948,-0.621504 c -0.0723,-0.180518 -0.12585,-0.126898 -0.13672,0.136718 -0.01,0.238543 0.0436,0.372194 0.11886,0.297 0.0752,-0.0752 0.0832,-0.270361 0.0179,-0.433718 z M 58.12491,12.864861 c 0,-0.124451 -0.101833,-0.226284 -0.226292,-0.226284 -0.124459,0 -0.226284,0.101833 -0.226284,0.226284 0,0.124459 0.101825,0.226292 0.226284,0.226292 0.124459,0 0.226292,-0.101833 0.226292,-0.226292 z M 0.08215713,33.909603 c -0.07691,-0.124459 -0.03197,-0.226284 0.09979,-0.226284 0.131808,0 0.239644,0.101825 0.239644,0.226284 0,0.124459 -0.04494,0.226292 -0.09979,0.226292 -0.05489,0 -0.162721,-0.101833 -0.239644,-0.226292 z M 1.2843091,33.755022 c 0.163357,-0.06533 0.358524,-0.05734 0.433718,0.01786 0.0752,0.0752 -0.05848,0.128676 -0.297,0.118847 -0.263616,-0.01085 -0.317236,-0.06444 -0.136718,-0.136718 z m -2.446733,-0.537631 c 0,-0.131808 0.101833,-0.176709 0.22629203,-0.09979 0.12445,0.07691 0.226283,0.184759 0.226283,0.239644 0,0.05489 -0.101833,0.09979 -0.226283,0.09979 -0.12445903,0 -0.22629203,-0.107836 -0.22629203,-0.239636 z m -1.131436,-2.362665 c 0,-0.186693 0.09864,-0.339438 0.219188,-0.339438 0.120552,0 0.160567,0.152745 0.08893,0.339438 -0.07161,0.186684 -0.170273,0.33943 -0.219188,0.33943 -0.04894,0 -0.08893,-0.152746 -0.08893,-0.33943 z m 5.770332,-0.113146 c -0.07691,-0.124459 -0.03197,-0.226292 0.09979,-0.226292 0.131808,0 0.239644,0.101833 0.239644,0.226292 0,0.124459 -0.04486,0.226284 -0.09979,0.226284 -0.05489,0 -0.162729,-0.101825 -0.239644,-0.226284 z m -4.41260397,-2.043692 c 0,-0.120552 0.152737,-0.219188 0.339429,-0.219188 0.186685,0 0.33943,0.04005 0.33943,0.08894 0,0.04894 -0.152745,0.14755 -0.33943,0.219188 -0.186692,0.07161 -0.339429,0.03165 -0.339429,-0.08894 z m 2.94173097,0.0073 c -0.290076,-0.187459 -0.281846,-0.219865 0.05661,-0.222826 0.217801,-0.0016 0.396003,0.09837 0.396003,0.222826 0,0.275981 -0.02553,0.275981 -0.452576,0 z M 73.067736,28.303565 c -0.511131,-0.186684 -1.123393,-1.017147 -1.131762,-1.535105 -0.0041,-0.256243 -0.157035,-0.663558 -0.339764,-0.905144 -0.182728,-0.241593 -0.335474,-0.581031 -0.33943,-0.754306 -0.0041,-0.173276 -0.46543,-1.269696 -1.025492,-2.436489 -0.560061,-1.166794 -1.018289,-2.252073 -1.018289,-2.411718 0,-0.159654 -0.127289,-0.417553 -0.282865,-0.573112 -0.200094,-0.200077 -0.282857,-1.236172 -0.282857,-3.540984 0,-2.304583 0.08279,-3.341054 0.282857,-3.541424 0.155576,-0.155796 0.282865,-0.466785 0.282865,-0.691087 0,-1.173058 2.768635,-5.0235207 3.733745,-5.1926767 0.411239,-0.0721 0.447845,0.03165 0.400807,1.136281 -0.02847,0.668582 -0.165176,1.352254 -0.303795,1.519281 -0.141457,0.170445 -0.267669,1.2826147 -0.287669,2.5349617 -0.03572,2.238402 0.0221,2.491667 1.003225,4.392205 0.237605,0.46026 0.432013,0.986374 0.432013,1.169151 0,0.18277 0.110381,0.369111 0.245297,0.414078 0.345098,0.115038 0.530771,5.206804 0.245949,6.744577 -0.549434,2.966339 -0.964123,3.90919 -1.614835,3.671511 z m -1.365574,-6.386966 c 0,-0.124451 -0.101833,-0.226284 -0.226292,-0.226284 -0.124459,0 -0.226284,0.101833 -0.226284,0.226284 0,0.124459 0.101825,0.226292 0.226284,0.226292 0.124459,0 0.226292,-0.101833 0.226292,-0.226292 z m 2.376017,-3.168023 c 0.07692,-0.124459 0.03205,-0.226284 -0.09979,-0.226284 -0.131808,0 -0.239644,0.101825 -0.239644,0.226284 0,0.124459 0.04486,0.226292 0.09978,0.226292 0.05489,0 0.162721,-0.101833 0.239644,-0.226292 z"
       id="path3" /></g></svg>
